<?xml version="1.0" encoding="iso-8859-1"?>
<!-- Generator: Adobe Illustrator 19.0.0, SVG Export Plug-In . SVG Version: 6.00 Build 0)  -->
<svg version="1.1" id="Capa_1" xmlns="http://www.w3.org/2000/svg" xmlns:xlink="http://www.w3.org/1999/xlink" x="0px" y="0px"
	 viewBox="0 0 512 512" style="enable-background:new 0 0 512 512;" xml:space="preserve">
<path style="fill:#7D7072;" d="M256,379.25c-67.96,0-123.25-55.29-123.25-123.25S188.04,132.75,256,132.75S379.25,188.04,379.25,256
	S323.96,379.25,256,379.25z"/>
<path style="fill:#2D86CC;" d="M305.08,458.66c-15.74,3.82-32.18,5.84-49.08,5.84s-33.34-2.02-49.08-5.84
	c2.82-60.35-9.88-186.74-148.96-267.92c6.93-21,17.12-40.53,29.97-57.99c42.52,13.68,102.68,28.03,168.07,28.03
	s125.55-14.35,168.07-28.03c12.85,17.46,23.04,36.99,29.97,57.99C314.96,271.92,302.26,398.31,305.08,458.66z"/>
<path style="fill:#266FAB;" d="M429.07,206.711c7.835-5.486,16.146-10.82,24.97-15.971c-6.93-21-17.12-40.53-29.97-57.99
	c-9.076,2.92-18.961,5.869-29.523,8.704C408.678,161.493,420.335,183.394,429.07,206.711z"/>
<path style="fill:#756A6B;" d="M256,7.5C118.757,7.5,7.5,118.757,7.5,256S118.757,504.5,256,504.5S504.5,393.243,504.5,256
	S393.243,7.5,256,7.5z M305.08,458.66c-15.74,3.82-32.18,5.84-49.08,5.84s-33.34-2.02-49.08-5.84
	C115.55,436.54,47.5,354.07,47.5,256c0-22.78,3.67-44.72,10.46-65.26c6.93-21,17.12-40.53,29.97-57.99
	C125.91,81.09,187.11,47.5,256,47.5s130.09,33.59,168.07,85.25c12.85,17.46,23.04,36.99,29.97,57.99
	c6.79,20.54,10.46,42.48,10.46,65.26C464.5,354.07,396.45,436.54,305.08,458.66z"/>
<path style="fill:#FFD359;" d="M256,316c-33.084,0-60-26.916-60-60s26.916-60,60-60s60,26.916,60,60S289.084,316,256,316z"/>
<path style="fill:#F5B540;" d="M256,196c-5.178,0-10.204,0.66-15,1.899c25.849,6.678,45,30.195,45,58.101s-19.151,51.424-45,58.101
	c4.796,1.239,9.822,1.899,15,1.899c33.084,0,60-26.916,60-60S289.084,196,256,196z"/>
<path d="M437.02,74.98C388.667,26.629,324.38,0,256,0S123.333,26.629,74.98,74.98C26.629,123.333,0,187.62,0,256
	s26.629,132.667,74.98,181.02C123.333,485.371,187.62,512,256,512s132.667-26.629,181.02-74.98C485.371,388.667,512,324.38,512,256
	S485.371,123.333,437.02,74.98z M426.413,426.413C380.894,471.932,320.374,497,256,497s-124.894-25.068-170.413-70.587
	S15,320.374,15,256S40.068,131.106,85.587,85.587S191.626,15,256,15s124.894,25.068,170.413,70.587S497,191.626,497,256
	S471.932,380.894,426.413,426.413z"/>
<path d="M461.409,189.38c-0.061-0.331-0.139-0.662-0.247-0.99c-6.777-20.535-16.604-39.875-29.216-57.539
	c-0.345-0.486-0.696-0.967-1.045-1.45c-0.265-0.365-0.524-0.734-0.791-1.097c-0.016-0.021-0.035-0.038-0.051-0.058
	c-6.211-8.474-13.028-16.485-20.428-23.969c-15.929-16.125-34.272-29.591-54.517-40.022
	c-56.252-29.021-121.958-32.104-180.265-8.457c-3.838,1.557-5.688,5.93-4.131,9.769s5.933,5.689,9.769,4.131
	c54.25-22,115.392-19.126,167.753,7.888c18.84,9.708,35.904,22.235,50.723,37.235c4.414,4.464,8.601,9.132,12.566,13.982
	c-22.675,6.856-51,13.98-82.579,18.764c-21.618-14.598-46.765-22.317-72.95-22.317s-51.332,7.719-72.949,22.317
	c-31.64-4.793-60.012-11.935-82.708-18.803c14.489-17.753,32.045-33.064,52.11-45.087c3.553-2.129,4.708-6.735,2.579-10.289
	c-2.128-3.553-6.735-4.708-10.289-2.579c-39.066,23.408-69.294,58.395-87.054,99.607c-0.451,1.041-0.895,2.086-1.33,3.134
	c-0.182,0.441-0.363,0.883-0.542,1.326c-1.805,4.443-3.472,8.946-4.979,13.512c-0.072,0.218-0.132,0.437-0.183,0.657
	c-3.173,9.733-5.691,19.739-7.483,29.969c-3.941,22.436-4.315,45.188-1.113,67.622c3.226,22.687,10.07,44.686,20.34,65.387
	c21.943,44.229,57.197,78.653,101.95,99.55c12.774,5.965,26.072,10.635,39.661,13.995c0.366,0.154,0.746,0.284,1.142,0.38
	C221.697,469.964,238.805,472,256,472c6,0,11.987-0.263,17.945-0.757c0.115-0.009,0.229-0.016,0.344-0.026
	c1.4-0.118,2.797-0.261,4.194-0.406c0.743-0.077,1.486-0.147,2.228-0.232c1.07-0.122,2.136-0.262,3.203-0.401
	c1.046-0.135,2.092-0.27,3.136-0.42c0.905-0.131,1.807-0.274,2.71-0.416c1.175-0.185,2.349-0.375,3.52-0.579
	c0.851-0.149,1.699-0.306,2.547-0.465c1.18-0.221,2.358-0.45,3.534-0.691c0.888-0.182,1.773-0.37,2.658-0.563
	c0.544-0.119,1.09-0.223,1.633-0.346c0.528-0.119,1.051-0.259,1.578-0.382c0.538-0.126,1.081-0.237,1.618-0.367
	c0.177-0.043,0.349-0.096,0.519-0.151c15.309-3.755,30.273-9.208,44.525-16.279c15.403-7.642,29.824-17.069,42.857-28.018
	c36.456-30.586,62.109-73.229,72.232-120.074C475.155,263.611,473.19,225.415,461.409,189.38z M256,140.25
	c16.806,0,33.128,3.593,48.128,10.488c-15.545,1.603-31.67,2.541-48.128,2.541s-32.584-0.938-48.128-2.541
	C222.872,143.843,239.194,140.25,256,140.25z M452.321,298.259c-9.424,43.607-33.293,83.294-67.215,111.754
	c-12.126,10.185-25.543,18.956-39.88,26.069c-10.617,5.267-21.654,9.577-32.939,12.881c-0.324-21.736,1.646-49.736,9.753-80.171
	c39.992-23.483,64.71-66.398,64.71-112.793c0-1.016-0.012-2.053-0.037-3.101c6.462-6.832,13.452-13.554,21.038-20.117
	c3.133-2.71,3.475-7.446,0.765-10.579c-2.71-3.134-7.447-3.476-10.579-0.765c-89.701,77.602-102.033,175.764-100.579,231.273
	c-0.135,0.028-0.269,0.059-0.404,0.087c-3.175,0.66-6.371,1.244-9.583,1.748c-0.252,0.04-0.505,0.075-0.758,0.114
	c-1.369,0.209-2.74,0.405-4.114,0.586c-0.34,0.045-0.68,0.089-1.02,0.132c-1.346,0.17-2.694,0.326-4.044,0.469
	c-0.296,0.031-0.591,0.066-0.887,0.096c-1.634,0.166-3.271,0.315-4.91,0.441c-0.016,0.001-0.031,0.002-0.047,0.003
	c-1.489,0.114-2.98,0.205-4.472,0.286c-0.846,0.045-1.692,0.081-2.539,0.115c-0.587,0.025-1.174,0.048-1.761,0.068
	c-1.147,0.037-2.293,0.068-3.44,0.085c-0.081,0.001-0.162,0.002-0.243,0.003c-14.918,0.204-29.858-1.252-44.495-4.326
	c0.302-11.691-0.057-23.526-1.074-35.272c-0.357-4.126-3.979-7.185-8.119-6.825c-4.126,0.357-7.182,3.992-6.825,8.119
	c0.872,10.068,1.233,20.203,1.088,30.242c-9.904-2.878-19.614-6.508-29.017-10.899c-41.641-19.444-74.442-51.474-94.859-92.626
	c-9.559-19.265-15.927-39.732-18.928-60.836c-2.979-20.869-2.631-42.035,1.037-62.914c1.155-6.592,2.642-13.081,4.419-19.46
	c23.971,14.855,44.993,31.854,62.922,50.8c-0.024,1.032-0.036,2.053-0.036,3.053c0,46.383,24.705,89.288,64.679,112.775
	c1.56,5.856,2.953,11.787,4.148,17.801c0.709,3.569,3.842,6.04,7.348,6.04c0.484,0,0.977-0.047,1.47-0.145
	c4.063-0.808,6.702-4.755,5.895-8.818c-1.449-7.29-3.163-14.471-5.121-21.543c-0.053-0.222-0.116-0.442-0.189-0.659
	c-8.039-28.765-20.264-55.658-36.504-80.181c-8.317-12.559-17.716-24.479-28.111-35.761c-0.293-0.386-0.624-0.743-0.986-1.066
	c-19.969-21.459-43.633-40.545-70.805-57.008c0.191-0.527,0.378-1.056,0.573-1.582c0.327-0.877,0.663-1.75,1.002-2.622
	c0.338-0.87,0.675-1.741,1.024-2.606c5.576-13.746,12.662-26.837,21.184-39.081c24.541,7.656,56.328,15.895,92.108,21.172
	c0.485,0.122,0.981,0.194,1.48,0.218c22.559,3.266,46.675,5.344,71.554,5.344c24.904,0,49.042-2.083,71.62-5.354
	c0.476-0.027,0.948-0.092,1.411-0.208c35.772-5.276,67.553-13.512,92.092-21.167c0.208,0.301,0.422,0.599,0.629,0.901
	c0.068,0.1,0.134,0.201,0.202,0.301c5.186,7.615,9.863,15.607,13.997,23.94c3.381,6.814,6.347,13.749,8.916,20.779
	c-7.547,4.574-14.873,9.376-21.844,14.321c-3.378,2.396-4.174,7.078-1.778,10.457c2.396,3.378,7.078,4.174,10.457,1.778
	c5.74-4.071,11.746-8.034,17.912-11.856C458.332,233.275,459.311,265.916,452.321,298.259z M329.385,345.431
	c8.886-24.403,22.064-49.687,41.334-74.061C366.815,300.398,351.974,326.87,329.385,345.431z M141.286,271.412
	c4.659,5.89,9.07,11.929,13.183,18.14c11.529,17.409,20.913,36.095,28.107,55.847C160.02,326.849,145.196,300.407,141.286,271.412z"
	/>
<path d="M256,188.5c-37.22,0-67.5,30.28-67.5,67.5s30.28,67.5,67.5,67.5s67.5-30.28,67.5-67.5S293.22,188.5,256,188.5z M256,308.5
	c-28.949,0-52.5-23.551-52.5-52.5s23.551-52.5,52.5-52.5s52.5,23.551,52.5,52.5S284.949,308.5,256,308.5z"/>
<path d="M362.583,176h-10c-4.142,0-7.5,3.358-7.5,7.5s3.358,7.5,7.5,7.5h10c4.142,0,7.5-3.358,7.5-7.5S366.726,176,362.583,176z"/>
<path d="M362.583,202.07h-10c-4.142,0-7.5,3.358-7.5,7.5s3.358,7.5,7.5,7.5h10c4.142,0,7.5-3.358,7.5-7.5
	S366.726,202.07,362.583,202.07z"/>
<path d="M159.417,176h-10c-4.142,0-7.5,3.358-7.5,7.5s3.358,7.5,7.5,7.5h10c4.142,0,7.5-3.358,7.5-7.5S163.559,176,159.417,176z"/>
<path d="M159.417,202.07h-10c-4.142,0-7.5,3.358-7.5,7.5s3.358,7.5,7.5,7.5h10c4.142,0,7.5-3.358,7.5-7.5
	S163.559,202.07,159.417,202.07z"/>
<g>
</g>
<g>
</g>
<g>
</g>
<g>
</g>
<g>
</g>
<g>
</g>
<g>
</g>
<g>
</g>
<g>
</g>
<g>
</g>
<g>
</g>
<g>
</g>
<g>
</g>
<g>
</g>
<g>
</g>
</svg>
