<svg id="visual" viewBox="0 0 960 40" width="960" height="40" xmlns="http://www.w3.org/2000/svg" xmlns:xlink="http://www.w3.org/1999/xlink" version="1.1"><path d="M0 23L8.8 23.2C17.7 23.3 35.3 23.7 53.2 22C71 20.3 89 16.7 106.8 15.2C124.7 13.7 142.3 14.3 160 14C177.7 13.7 195.3 12.3 213.2 14.3C231 16.3 249 21.7 266.8 21C284.7 20.3 302.3 13.7 320 13.8C337.7 14 355.3 21 373.2 24.7C391 28.3 409 28.7 426.8 26.5C444.7 24.3 462.3 19.7 480 16.8C497.7 14 515.3 13 533.2 14C551 15 569 18 586.8 17.5C604.7 17 622.3 13 640 12C657.7 11 675.3 13 693.2 15C711 17 729 19 746.8 20.8C764.7 22.7 782.3 24.3 800 26C817.7 27.7 835.3 29.3 853.2 28.2C871 27 889 23 906.8 20.3C924.7 17.7 942.3 16.3 951.2 15.7L960 15L960 0L951.2 0C942.3 0 924.7 0 906.8 0C889 0 871 0 853.2 0C835.3 0 817.7 0 800 0C782.3 0 764.7 0 746.8 0C729 0 711 0 693.2 0C675.3 0 657.7 0 640 0C622.3 0 604.7 0 586.8 0C569 0 551 0 533.2 0C515.3 0 497.7 0 480 0C462.3 0 444.7 0 426.8 0C409 0 391 0 373.2 0C355.3 0 337.7 0 320 0C302.3 0 284.7 0 266.8 0C249 0 231 0 213.2 0C195.3 0 177.7 0 160 0C142.3 0 124.7 0 106.8 0C89 0 71 0 53.2 0C35.3 0 17.7 0 8.8 0L0 0Z" fill="#FFFFFF" strokeLinecap="round" strokeLinejoin="miter"></path></svg>